<?xml version="1.0" encoding="UTF-8"?>
<svg xmlns="http://www.w3.org/2000/svg" id="Layer_1" data-name="Layer 1" viewBox="0 0 16 16"><defs><style>.cls-1{fill:#3650ff;}</style></defs><title>Favicon</title><path class="cls-1" d="M14.57,7.38h0l.15-.11a.08.08,0,0,0,0,0,.07.07,0,0,0,0,0h0l0,0a.12.12,0,0,0-.08,0h-.35a3.42,3.42,0,0,0-.45,0,3.32,3.32,0,0,1-.55,0h-.1a.15.15,0,0,0-.13.15.13.13,0,0,0,.13.14h.37a3.58,3.58,0,0,1,.86-.08Z"/><path class="cls-1" d="M14.48,5.46l-.06.07a.31.31,0,0,0-.08.15s0,0,0,0l0,0h.1a1.55,1.55,0,0,0,.72-.22.05.05,0,0,0,0,0V5.4a0,0,0,0,0-.05-.05,1.58,1.58,0,0,0-.68.09Z"/><path class="cls-1" d="M13.4,4.5h0l-.09.08,0,0a.29.29,0,0,0,0,.13l0,0h.09l.21-.07.7-.36a1.58,1.58,0,0,0,.24-.15s0,0,.07,0,0,0,0,0,0,0,0,0a.35.35,0,0,0-.33,0l-.71.35Z"/><path class="cls-1" d="M15.51,7a1,1,0,0,0-.63,0,.05.05,0,0,0,0,0V7.1a.05.05,0,0,0,0,.05.8.8,0,0,0,.26,0A.7.7,0,0,0,15.58,7,.05.05,0,0,0,15.52,7Z"/><path class="cls-1" d="M12,3.38h-.15l-.51.48s0,0,0,0a.2.2,0,0,0,0,.13c0,.06.08.09.1.09h0A.48.48,0,0,0,11.63,4l.4-.46c.05-.07.09-.11.06-.15s0,0-.05,0Z"/><path class="cls-1" d="M14.62,4.89a.05.05,0,0,0,.05,0c.16,0,.27,0,.34-.15a0,0,0,0,0,0,0,0,0,0,0,0,0,0,.34.34,0,0,0-.35.14A.07.07,0,0,0,14.62,4.89Z"/><path class="cls-1" d="M13,3.72v.11a.11.11,0,0,0,0,0h.26l.11-.08L14,3.34a.22.22,0,0,0,.07-.19l0,0h0a.58.58,0,0,0-.34.14l-.55.37h0l0,.07A0,0,0,0,0,13,3.72Z"/><path class="cls-1" d="M12.2,2.51h0A1,1,0,0,0,12.73,2s0-.05,0-.06l0,0h-.11a.75.75,0,0,0-.42.48v.12a0,0,0,0,0,0,0Z"/><path class="cls-1" d="M12,4.24h-.21l-.64.4a.18.18,0,0,0-.08.15.15.15,0,0,0,.08.11.15.15,0,0,0,.11,0,.2.2,0,0,0,.11,0h.08l.43-.31a.39.39,0,0,0,.14-.3l0,0a.24.24,0,0,0,.12,0h.13l.49-.43v0a1,1,0,0,0,.07-.15h0a.07.07,0,0,0,0-.06v0a.07.07,0,0,0,0,0h-.06a.14.14,0,0,0-.11.06L12.16,4l0,0a.64.64,0,0,0-.1.13A.28.28,0,0,0,12,4.24Z"/><path class="cls-1" d="M12.22,3.17v.19a0,0,0,0,0,0,.05h.07a1.41,1.41,0,0,0,.24-.13c.15-.14.29-.29.44-.44l0,0v0a.21.21,0,0,0,0-.11.07.07,0,0,0-.05,0h-.2L12.35,3A.47.47,0,0,0,12.22,3.17Z"/><path class="cls-1" d="M15.52,6.34a0,0,0,1,0,0-.1H15.4a0,0,0,0,0,0,.1Z"/><path class="cls-1" d="M10.27,5.77h0a1.21,1.21,0,0,0,.3-.2,3.55,3.55,0,0,0,.38-.4A.25.25,0,0,0,11.05,5a.07.07,0,0,0,0,0h-.2a.58.58,0,0,0-.16.19.65.65,0,0,1-.36.31.38.38,0,0,0-.16.12h0a.2.2,0,0,0,0,.15.05.05,0,0,0,.05,0Z"/><path class="cls-1" d="M13.33,5h-.05s0,0,0,0h0a1.23,1.23,0,0,0-.54.2.13.13,0,0,0-.06.07.16.16,0,0,0,0,.22l0,0h.09a.22.22,0,0,0,.11,0,3.48,3.48,0,0,0,.38-.23l0,0s0-.11,0-.16h0a.05.05,0,0,0,.05,0,.13.13,0,0,0,0-.06Z"/><path class="cls-1" d="M10.22,4.25h0l0,0A1.15,1.15,0,0,0,10.43,4a1.74,1.74,0,0,1,.43-.77,1.11,1.11,0,0,0,.19-.43v0h0a0,0,0,0,0,0-.1H11a.34.34,0,0,0-.12.09A9.08,9.08,0,0,0,10.11,4a.31.31,0,0,0,0,.19v0l.06.06Z"/><path class="cls-1" d="M14.88,7.75a.35.35,0,0,0-.3,0,.21.21,0,0,1-.24,0h0a4.11,4.11,0,0,0-.47-.07h0a.19.19,0,0,0-.19.15.09.09,0,0,0,0,0c.12.11.13.12.26.14a1,1,0,0,0,.67,0,3.47,3.47,0,0,0,.79.08h.22A.35.35,0,0,0,15.72,8s0,0,0,0a.07.07,0,0,0-.05,0l0,0a.18.18,0,0,0-.07,0Z"/><path class="cls-1" d="M10.09,5.09a.14.14,0,0,0,0,.09l0,0,.06,0,.07,0h0A1.08,1.08,0,0,0,10.37,5a.61.61,0,0,1,.29-.34,1.14,1.14,0,0,0,.23-.15.4.4,0,0,0,.23-.36.05.05,0,0,0,0,0,.33.33,0,0,0-.14,0,1.6,1.6,0,0,0-.85.83A.26.26,0,0,0,10.09,5.09Z"/><path class="cls-1" d="M12.27,5.53l-.65.23a.25.25,0,0,0-.15.1,0,0,0,0,0,0,0V6a.07.07,0,0,0,0,.06h.23l.83-.27h0a.16.16,0,0,0,.06-.18l0,0A.44.44,0,0,0,12.27,5.53Z"/><path class="cls-1" d="M13.29,5.54a.24.24,0,0,0,.16.07.34.34,0,0,0,.17-.05l.74-.3.12-.1a0,0,0,0,0,0,0v0a.05.05,0,0,0,0,0,.07.07,0,0,0-.06,0h-.21l-.7.2a.28.28,0,0,0-.25.14A.13.13,0,0,0,13.29,5.54Z"/><path class="cls-1" d="M13.88,6.46a3.57,3.57,0,0,0-1.07.17,2.68,2.68,0,0,1-1,.18H11.7a.19.19,0,0,0-.15.16.06.06,0,0,0,0,0,.3.3,0,0,0,.17.13h.12l.43-.06A2.69,2.69,0,0,0,13,6.94a2,2,0,0,1,.58-.13A.67.67,0,0,0,14,6.65h.17a1.8,1.8,0,0,0,.69-.09l.27-.15s0,0,0,0a.05.05,0,0,0-.05,0s0,0,0,0,0,0-.06,0h-.83a.35.35,0,0,0-.21.12A.43.43,0,0,0,13.88,6.46Z"/><path class="cls-1" d="M11.07,6.86V7a.15.15,0,0,1-.15.14h0l-.19-.07h-.16a.19.19,0,0,0-.18.18c0,.07,0,.16.13.18a.76.76,0,0,0,.3,0,1,1,0,0,1,.67.12.5.5,0,0,0,.31.1h1a.64.64,0,0,0,.18-.06.11.11,0,0,0,0-.15l0,0a.48.48,0,0,0-.21-.07h-.65a.91.91,0,0,1-.49-.08A.26.26,0,0,1,11.38,7a.48.48,0,0,1,.49-.55,3.88,3.88,0,0,0,.61-.1.59.59,0,0,0,.46-.23h.52A.65.65,0,0,0,14,6a.06.06,0,0,0,0,0,.16.16,0,0,0-.19-.12,1.52,1.52,0,0,1-.6,0H13a.26.26,0,0,0-.21.14V6a.3.3,0,0,1,0,.1l-.35.06-.34.09-.4.07h-.23a.35.35,0,0,0-.31.24A1.21,1.21,0,0,0,11.07,6.86Z"/><path class="cls-1" d="M13,8.05a.66.66,0,0,0,.21,0A.76.76,0,0,0,13.58,8a.05.05,0,0,0,0-.08l0,0a.73.73,0,0,0-.65-.13l0,0a.24.24,0,0,0,0,.12A.16.16,0,0,0,13,8.05Z"/><path class="cls-1" d="M11.06,5.73l.08,0a.72.72,0,0,0,.19-.11,1.29,1.29,0,0,1,.5-.33A3.3,3.3,0,0,0,12.24,5a6.22,6.22,0,0,1,.65-.45l.29-.21a.57.57,0,0,0,.13-.14.06.06,0,0,0,0,0s0,0,0,0a.31.31,0,0,0-.32,0l-.27.17-.49.34a7.48,7.48,0,0,1-.89.57l-.26.15a.2.2,0,0,0-.11.11s0,0,0,0v.13a.05.05,0,0,0,0,0Z"/><path class="cls-1" d="M4.58,11.8a5.84,5.84,0,0,0,.79-1.06A15.31,15.31,0,0,1,6.66,9a2.71,2.71,0,0,1,.74-.69.05.05,0,0,0,0,0s0,0,.06-.07a.05.05,0,0,0,0-.08.25.25,0,0,0-.34.07,8.48,8.48,0,0,0-.87.83l-.35.4a2.68,2.68,0,0,0-.28.3l-1.17,1.4-.27.35L3.86,12a12.45,12.45,0,0,1-.81,1.1.34.34,0,0,0-.1.3.07.07,0,0,0,0,0H3a.47.47,0,0,0,.3-.18A10,10,0,0,0,4.46,12Z"/><path class="cls-1" d="M7.58,11.06c0-.15.09-.3.14-.46a2.83,2.83,0,0,1,.53-1,1.4,1.4,0,0,0,.34-.82,1.19,1.19,0,0,1,.34-.71.46.46,0,0,1,.42-.18.41.41,0,0,0,.22,0h0s.09-.07.09-.12,0-.1-.11-.13H9.42L9,7.74H8.88l0,0L8.72,8c-.1.12-.19.25-.28.38v0a.31.31,0,0,0,0,.19,1.48,1.48,0,0,1-.34.85A4.77,4.77,0,0,0,7.25,11l-.09.31c-.07.2-.13.42-.21.63a1.48,1.48,0,0,1-.12.29.41.41,0,0,1-.13.17.08.08,0,0,1-.1,0s0,0,0-.05a.43.43,0,0,1,0-.16,1.86,1.86,0,0,1,.09-.47c.12-.38.24-.71.36-1a4.8,4.8,0,0,1,.75-1.32L8,9.11a1,1,0,0,0,.07-.41V8.55a.22.22,0,0,0-.22-.22.24.24,0,0,0-.14.05,2.52,2.52,0,0,0-.25.21A8.89,8.89,0,0,0,5.35,12a5,5,0,0,1-.31.76l-.55,1.08s0,0,0,0,0,0,0,0a.16.16,0,0,0,0,.21.12.12,0,0,0,.11,0s.08-.05.12-.12l0,0,.2-.33c.17-.28.35-.57.51-.87A3.32,3.32,0,0,0,5.79,12a6.9,6.9,0,0,1,.68-1.67A12,12,0,0,1,7.6,8.72l.1-.09a.11.11,0,0,1,.13,0,.12.12,0,0,1,0,.12.72.72,0,0,1-.09.2.64.64,0,0,1-.1.13l-.1.13A7.11,7.11,0,0,0,6.23,12a.94.94,0,0,0,0,.62.72.72,0,0,1,0,.54v0a.88.88,0,0,1-.06.26,1.21,1.21,0,0,0,0,.18c-.1.41-.2.81-.28,1.18a1,1,0,0,0,0,.25s0,0,0,0H6l0,0a1.35,1.35,0,0,0,.15-.26c0-.15.09-.29.13-.43.12-.35.24-.71.34-1.07a2.19,2.19,0,0,1,.38-.8,3,3,0,0,0,.37-.88C7.47,11.42,7.52,11.24,7.58,11.06Z"/><path class="cls-1" d="M8.26,7.81h0a.38.38,0,0,1-.42,0l-.23-.13a.42.42,0,0,0-.43,0L7,7.78l-.47.31A3.31,3.31,0,0,0,6,8.5a7.54,7.54,0,0,1-.57.5l-.81.64a2.33,2.33,0,0,0-.55.58,2.06,2.06,0,0,1-.52.58l-.28.28a.44.44,0,0,0-.1.16,0,0,0,0,0,0,0l0,0h0l.17-.06a2.15,2.15,0,0,0,.69-.54A4.6,4.6,0,0,1,4.74,10l.44-.39a12.91,12.91,0,0,0,1.08-1,3.74,3.74,0,0,1,.31-.27L7,8a.46.46,0,0,1,.65,0h0a.93.93,0,0,0,.61.09h.08a.05.05,0,0,0,0,0,.16.16,0,0,0,0-.21H8.26Z"/><path class="cls-1" d="M8.31,7l.57-.21a.05.05,0,0,0,0,0V6.66a.09.09,0,0,0,0-.06s-.1,0-.17,0H8.6l-.23.08h0s-.06,0-.1.06a.38.38,0,0,0-.13.06.06.06,0,0,0,0,0,.11.11,0,0,0,.05.1.1.1,0,0,0,.07,0Z"/><path class="cls-1" d="M9.71,13.1c-.08-.34-.2-.85-.31-1.29l-.05-.2a1.91,1.91,0,0,1,0-1.11,1.31,1.31,0,0,0,0-.68.86.86,0,0,0,0-.27l0-.17a.29.29,0,0,1,.07-.22.26.26,0,0,1,.21-.11s0,0,.09,0h.12a.18.18,0,1,0-.27-.25L9.35,9a.14.14,0,0,1-.2,0,.19.19,0,0,1,0-.23.33.33,0,0,1,.24-.15H9.7a.48.48,0,0,0,.42-.24l.12-.21a.15.15,0,0,1,.15-.07.17.17,0,0,1,.07.31l-.17.11-.18.15h0a.29.29,0,0,0,0,.3,1,1,0,0,0,.08.14,1.49,1.49,0,0,1,.24.49,5.22,5.22,0,0,0,.37.75l.25.42a3.61,3.61,0,0,0,.54.78s0,0,0,0a.32.32,0,0,0,.15-.07.05.05,0,0,0,0,0,.25.25,0,0,0-.09-.23l-.13-.2c-.19-.29-.4-.6-.57-.91s-.33-.66-.48-1L10.46,9c-.08-.18-.06-.26.11-.4l.19-.15a.29.29,0,0,0,.1-.23A.31.31,0,0,0,10.77,8a.44.44,0,0,0-.29-.2h-.17a.34.34,0,0,1-.23-.36.84.84,0,0,1,.2-.44.38.38,0,0,1,.29-.12.44.44,0,0,0,.32-.13.12.12,0,0,0,0-.14l-.07-.07h0a.92.92,0,0,0-.81.4v0a.9.9,0,0,0,0,.23.44.44,0,0,0,0,.61A.14.14,0,0,1,10,8a.51.51,0,0,1-.33.17H9.38a.47.47,0,0,0-.33.17.52.52,0,0,0-.11.36v0A1.48,1.48,0,0,1,8.83,9a.2.2,0,0,0,0,.08.29.29,0,0,0-.07.12,1.28,1.28,0,0,0-.05.27.42.42,0,0,1-.21.25.56.56,0,0,0-.22.26l-.12.3a9.48,9.48,0,0,0-.36,1.29L7.67,12c-.06.26-.13.53-.18.79a11,11,0,0,0-.15,1.38c0,.24,0,.49,0,.74a.33.33,0,0,0,0,.14.38.38,0,0,0,0,.15.05.05,0,0,0,0,0h0a.6.6,0,0,0,.11-.12,1.38,1.38,0,0,0,.06-.26l.21-1.34.18-1.19c0-.16.05-.31.08-.47l.09-.53a6.09,6.09,0,0,1,.33-1.18,1,1,0,0,1,.11-.17.11.11,0,0,1,.13,0h0a.12.12,0,0,1,.05.09c0,.09,0,.17-.05.27a.68.68,0,0,1-.07.27l-.06.17a6.8,6.8,0,0,0-.13,1,8.05,8.05,0,0,0,0,1.7,6.91,6.91,0,0,0,.1,1c0,.17.05.34.07.51a1.31,1.31,0,0,0,0,.28,0,0,0,0,0,0,0l.11.12,0,0h0s0-.08,0-.17a.23.23,0,0,1,0-.07V13.64c0-.34,0-.69-.06-1s0-.4,0-.59a4.7,4.7,0,0,1,.13-1.59,1.1,1.1,0,0,0,0-.67.73.73,0,0,1-.05-.3.29.29,0,0,0,0-.09,2.58,2.58,0,0,1,.08-.26l.07,0a.11.11,0,0,1,.14,0v.21a3.38,3.38,0,0,0,0,.45,1.62,1.62,0,0,1,0,.62A3.14,3.14,0,0,0,9,11.61c.08.43.16.84.24,1.21s.15.61.22.89l.25.87a.11.11,0,0,0,0,.1.19.19,0,0,0,.16,0,0,0,0,0,0,0,0,.86.86,0,0,0,0-.39l0-.18C9.85,13.77,9.79,13.43,9.71,13.1Z"/><path class="cls-1" d="M3.89,9.36a1.81,1.81,0,0,0,.54-.22l1.14-.72a.63.63,0,0,0,.32-.34A.44.44,0,0,1,6.2,7.8h.19A1.33,1.33,0,0,0,7,7.28c.08-.12.15-.18.22-.19a.42.42,0,0,1,.29.13,1.14,1.14,0,0,0,1.17.24,1.7,1.7,0,0,1,.58-.11h0a.3.3,0,0,0,.3-.17l.13-.32L10,6.38a.3.3,0,0,1,.23-.14,1.94,1.94,0,0,1,.59,0,.31.31,0,0,0,.29-.07l0,0V6.05s0,0-.07,0h-.3a1.45,1.45,0,0,0-.3,0l-.15,0A.28.28,0,0,1,10,6h0a3.62,3.62,0,0,0-.68-.41.64.64,0,0,1-.19-.17.11.11,0,0,1,0-.11.22.22,0,0,1,.09-.12.2.2,0,0,1,.15,0,.19.19,0,0,1,.09,0,.51.51,0,0,1,.09.16h0a.67.67,0,0,1,.06.12h0a.14.14,0,0,0,.1,0,.18.18,0,0,0,.1,0h0a.18.18,0,0,0,0-.22,1.3,1.3,0,0,0-.1-.15.21.21,0,0,1,0-.23,1.74,1.74,0,0,1,.1-.19V4.56s0,0,0,0h0a.46.46,0,0,0-.14.14,1.42,1.42,0,0,0-.05.22.05.05,0,0,1,0,.05.08.08,0,0,1-.07,0,.13.13,0,0,1-.14-.11v-.2a0,0,0,0,0,0,0l0,0H9.25s-.08.07-.08.12v.2c0,.18-.07.22-.18.23a1.1,1.1,0,0,0-.59.23L8,5.64a.69.69,0,0,1-.54.13L7,5.71H6.44A.51.51,0,0,0,6,6l-.06.13a.21.21,0,0,1-.25.12L5.5,6.18a3.23,3.23,0,0,0-.69-.13A4,4,0,0,1,3.9,6a12.81,12.81,0,0,1-1.69-.2l-.54-.09H1.29a.23.23,0,0,0-.16.08.06.06,0,0,0,0,.06A.46.46,0,0,0,1.44,6l.68.07a13.81,13.81,0,0,0,1.93.28,8.28,8.28,0,0,1,1.57.16c.37.08.42,0,.52-.27V6.11a.37.37,0,0,1,.25-.19.7.7,0,0,1,.25,0,5.13,5.13,0,0,1,.66.13,1.06,1.06,0,0,0,.92-.24l.51-.33a.73.73,0,0,1,.2-.05.11.11,0,0,1,.1.08.15.15,0,0,1,0,.13l-.1.08A.85.85,0,0,0,8.52,6a.31.31,0,0,1-.14.11l-.48.22a.5.5,0,0,1-.34,0l-.7-.13a.76.76,0,0,0-.3,0,.31.31,0,0,0-.28.33s0,.05,0,.07v.08a.3.3,0,0,1,0,.2.2.2,0,0,1-.16,0h-.4A4.56,4.56,0,0,0,4.31,7H3.76l-2.18.13-1,.07a.81.81,0,0,0-.22,0h0a.39.39,0,0,0-.1.08.06.06,0,0,0,0,.06.27.27,0,0,0,.26.11h2a8.77,8.77,0,0,0,2-.22,3.29,3.29,0,0,1,1.43,0,.84.84,0,0,0,.52-.07.32.32,0,0,0,.2-.41h0V6.66h0a.14.14,0,0,1,.09-.17h.16l.78.15A.6.6,0,0,0,8,6.56a1.42,1.42,0,0,1,.25-.12,1,1,0,0,0,.53-.36,1.45,1.45,0,0,1,.29-.26.16.16,0,0,1,.22,0,2,2,0,0,0,.47.28.1.1,0,0,1,.08.05.1.1,0,0,1,0,.09s0,0-.05.08A1.65,1.65,0,0,0,9.53,7a.38.38,0,0,1-.15.24.11.11,0,0,1-.14,0,.08.08,0,0,1-.05-.11v0a.33.33,0,0,1,0-.14,1.72,1.72,0,0,0,.13-.48.48.48,0,0,0,0-.17.14.14,0,0,0-.06-.11.15.15,0,0,0-.11,0s0,0-.05,0A.19.19,0,0,0,9,6.4H9a.47.47,0,0,0,.06.09.35.35,0,0,1,0,.3A2.29,2.29,0,0,1,9,7.08a.23.23,0,0,1-.17.15h-.6a.38.38,0,0,1-.36-.15.74.74,0,0,0-.55-.26h0a.41.41,0,0,0-.47.24.55.55,0,0,1-.37.34l-.3.13a.49.49,0,0,1-.44,0,.76.76,0,0,0-.59,0l-.25.09-.38.13c-.3.1-.61.21-.92.29-.66.19-1.24.37-1.78.55l-.39.13-.26.08A.94.94,0,0,0,.89,9h0l-.06.1a.09.09,0,0,0,0,0l0,0a.86.86,0,0,0,.39,0l1.28-.34a17.12,17.12,0,0,0,2.6-.93,1.17,1.17,0,0,1,.24-.09h.17a.12.12,0,0,1,.09,0,.1.1,0,0,1,0,.1.06.06,0,0,1,0,0,.32.32,0,0,1-.21.21,7.69,7.69,0,0,0-.71.37,8.46,8.46,0,0,1-1.28.54c-.28.09-.57.2-.92.35s-.65.3-1,.47a1.65,1.65,0,0,0-.26.14.05.05,0,0,0,0,0,.08.08,0,0,1,0,.06s0,0,0,0a.05.05,0,0,0,0,.05.5.5,0,0,0,.34,0L3.12,9.6A3.44,3.44,0,0,1,3.89,9.36Z"/><path class="cls-1" d="M15.16,10.8c-.26-.16-.52-.32-.8-.47a16.33,16.33,0,0,1-1.59-1,.63.63,0,0,1-.17-.19.1.1,0,0,1,0-.14.18.18,0,0,1,.21,0h0a.18.18,0,0,1,.1.06l.07.05a5.82,5.82,0,0,0,.6.34l.91.37.21.09L15,10h0a.52.52,0,0,0,.16-.06.08.08,0,0,0,0-.05l0,0c0-.13-.13-.17-.21-.2l-.05,0L13.62,9a1.31,1.31,0,0,1-.69-.6.52.52,0,0,0-.21-.23,3.26,3.26,0,0,0-.4-.24H12.1C12,8,12,8,12,8.09a.26.26,0,0,0,.07.15l0,0,.24.1.31.09a.1.1,0,0,1,.05.1.12.12,0,0,1-.08.1h-.18c-.11,0-.26,0-.32.09a.29.29,0,0,0,.09.35,3.13,3.13,0,0,0,.65.66,5.61,5.61,0,0,0,1,.65c.34.2.69.37,1.1.59l.23.08h.15a.05.05,0,0,0,0-.06A.25.25,0,0,0,15.16,10.8Z"/><path class="cls-1" d="M15.4,8.76l-1.83-.51a.65.65,0,0,0-.24,0,.12.12,0,0,0-.12.1.13.13,0,0,0,0,.12l0,0,.24.11.57.13,1.16.3a.75.75,0,0,0,.26,0,.91.91,0,0,0,.23,0l0,0a.09.09,0,0,0,0,0A.47.47,0,0,0,15.4,8.76Z"/><path class="cls-1" d="M12.58,13.47a1.51,1.51,0,0,0-.11-.22c-.23-.37-.49-.79-.77-1.22a1.73,1.73,0,0,0-.38-.43.79.79,0,0,1-.17-.19l-.26-.26a.42.42,0,0,1,0-.16,1.38,1.38,0,0,0-.32-.58,1.49,1.49,0,0,1-.32-.61,1.29,1.29,0,0,1-.06-.21c0-.08-.05-.16-.07-.23A.82.82,0,0,0,10,9.13l0,0H9.82a.15.15,0,0,0-.09.1,1.22,1.22,0,0,0,0,.27A4.16,4.16,0,0,0,10,10a.31.31,0,0,1-.08.37.48.48,0,0,0-.13.39V11A7.64,7.64,0,0,0,10.49,13L11,14l.34.67.15.25a.14.14,0,0,0,.14.09h0a0,0,0,0,0,0,0,.29.29,0,0,0,0-.27l-.2-.58a16.57,16.57,0,0,0-.76-1.79c-.2-.39-.37-.77-.55-1.18l-.09-.2a.6.6,0,0,1,0-.19.12.12,0,0,1,.09-.12.14.14,0,0,1,.14,0,.25.25,0,0,1,0,.07,1.47,1.47,0,0,0,.29.48.08.08,0,0,1,0,.07h0a.51.51,0,0,0,.17.34l.21.23c.16.18.33.37.48.56s.32.43.49.67l.24.33a.73.73,0,0,0,.22.21v0l0,0h0a.07.07,0,0,0,0,0,.08.08,0,0,0,0-.05S12.58,13.51,12.58,13.47Z"/><path class="cls-1" d="M14.35,11.75s0,0,0,0a.61.61,0,0,0-.12-.16l-.4-.34a12.42,12.42,0,0,1-1.46-1.35,3.54,3.54,0,0,1-.52-.78.29.29,0,0,1,0-.34.33.33,0,0,0,.1-.24.33.33,0,0,0-.08-.22h0a.58.58,0,0,0-.17-.18l-.39-.27h-.17A.16.16,0,0,0,11,8a0,0,0,0,0,0,0,.43.43,0,0,0,.16.14.64.64,0,0,0,.2.08.5.5,0,0,1,.23.18.14.14,0,0,1,0,.15.11.11,0,0,1-.13,0l-.24-.09a.34.34,0,0,0-.26,0,.37.37,0,0,0-.21.18.36.36,0,0,0,0,.32,3.24,3.24,0,0,0,.19.37l.75,1.24a2.69,2.69,0,0,1,.28.53,1.27,1.27,0,0,0,.24.42,5.53,5.53,0,0,0,.46.52l.87.83a1.66,1.66,0,0,0,.21.16h.15l0,0a.07.07,0,0,0,0,0,1.18,1.18,0,0,0-.23-.35c-.14-.17-.29-.34-.44-.5l-.18-.21a7.68,7.68,0,0,1-.85-1.12c-.35-.56-.71-1.12-1.07-1.66L11,9a.12.12,0,0,1,0-.15.12.12,0,0,1,.16,0,.51.51,0,0,1,.22.26,2.43,2.43,0,0,0,.14.28,6.56,6.56,0,0,0,1.29,1.54l.37.3.63.52a2.26,2.26,0,0,0,.26.16.26.26,0,0,0,.21,0s0,0,0,0l0,0Z"/><path class="cls-1" d="M2,4.67,2.75,5a10.1,10.1,0,0,0,1.44.47l1.13.33a1.28,1.28,0,0,0,.28,0c.16,0,.25-.08.37-.3a.27.27,0,0,1,.25-.14h.17a6.84,6.84,0,0,1,.9.08.52.52,0,0,0,.45-.12A.54.54,0,0,1,8,5.24a2.34,2.34,0,0,0,.35-.13A.91.91,0,0,0,9,4.51a.25.25,0,0,1,.24-.17h.35A.24.24,0,0,0,9.84,4l0,0A3.72,3.72,0,0,0,9.14,4h0a.4.4,0,0,1-.37,0L8.63,4A.25.25,0,0,0,8.28,4a.41.41,0,0,0-.07.11l-.1.14a.16.16,0,0,1-.22,0l0,0a1.77,1.77,0,0,0-.12-.17,1.16,1.16,0,0,0-.2-.24.32.32,0,0,0-.46,0h0L7,4a.2.2,0,0,1-.29,0h0a.57.57,0,0,1-.11-.11,6.1,6.1,0,0,1-.41-.7c-.23-.48-.44-.89-.65-1.26s-.25-.46-.39-.68A.24.24,0,0,0,4.91,1a.08.08,0,0,0-.08,0s0,.1,0,.16a.41.41,0,0,1,0,.07s0,0,0,0v0c.13.23.26.47.38.71.2.41.39.82.58,1.22a3.58,3.58,0,0,0,.55.84.87.87,0,0,0,.39.26.34.34,0,0,0,.35,0h0l0,0c.07-.08.12-.13.21-.11a.23.23,0,0,1,.16.14l0,.08c0,.06.09.11.13.16a.31.31,0,0,0,.2.13.32.32,0,0,0,.23-.05l.08-.08a0,0,0,0,0,0,0s.06-.08.1-.12l0,0a.42.42,0,0,1,.14-.09.14.14,0,0,1,.18,0,.15.15,0,0,1,0,.17.45.45,0,0,1-.2.21A4,4,0,0,1,8,5,.33.33,0,0,1,7.8,5a.29.29,0,0,1-.18-.13l-.1-.11a.43.43,0,0,0-.38-.15H6.7A1.05,1.05,0,0,1,6,4.3,11.87,11.87,0,0,0,4.39,3L4.2,2.9a5.08,5.08,0,0,1-.57-.47,2.11,2.11,0,0,0-.23-.19H3.25s0,0,0,0a0,0,0,0,0,0,.05l.08.11a8.2,8.2,0,0,0,.93.84A16.86,16.86,0,0,1,5.69,4.47c.12.1.25.19.38.28a.93.93,0,0,0,.35.13,2,2,0,0,0,.69,0A.47.47,0,0,1,7.55,5a.09.09,0,0,1,0,.13.27.27,0,0,1-.26,0,3.16,3.16,0,0,0-.92-.09h-.3a.33.33,0,0,1-.25-.08,4.47,4.47,0,0,0-.76-.45A5.68,5.68,0,0,1,4.14,4a1,1,0,0,0-.24-.15H3.75a.05.05,0,0,0,0,0,.09.09,0,0,0,0,0,.76.76,0,0,0,.12.19,4.59,4.59,0,0,0,.44.33,9.09,9.09,0,0,0,1.3.71h.12a.15.15,0,0,1,.08.08.14.14,0,0,1,0,.11.15.15,0,0,1,0,.07.28.28,0,0,1-.37,0,9.16,9.16,0,0,0-1-.33,18,18,0,0,1-2-.69h0L2,4.4l-.18,0s0,0-.05,0a.07.07,0,0,0,0,.05A.38.38,0,0,0,2,4.67Z"/><path class="cls-1" d="M11.32,3.13v.11a0,0,0,0,0,0,0h.13A1.54,1.54,0,0,0,12,2.66s0,0,0,0V2.56A0,0,0,0,0,12,2.51h-.11l-.5.45A.46.46,0,0,0,11.32,3.13Z"/><path class="cls-1" d="M10.46,2.58a0,0,0,0,0,0,0h.08l0,0a2.26,2.26,0,0,0,.16-.26l.07-.17c.06-.14.11-.28.18-.42l.09-.25V1.4a.05.05,0,0,0,0,0,.29.29,0,0,0-.13,0l0,0c0,.08-.08.16-.12.24a2.51,2.51,0,0,1-.32.66.65.65,0,0,0-.06.21.2.2,0,0,0,0,.07Z"/><path class="cls-1" d="M9.85,2.52h0c.16,0,.2-.15.23-.25v0s0-.15.07-.27.05-.21.07-.3a1.44,1.44,0,0,0,.05-.24v-.1a0,0,0,0,0-.05-.05H10.2a.05.05,0,0,0,0,0l-.31,1a.25.25,0,0,0,0,.15v0Z"/><path class="cls-1" d="M10.76,3.68a.16.16,0,0,0,0,.1.12.12,0,0,0,0,.14,0,0,0,0,0,0,0l.07,0h0a.41.41,0,0,0,.19,0l0,0a1.53,1.53,0,0,0,.28-.46v0a1,1,0,0,0,0-.11s0,0,0,0l0,0h-.05L11,3.34C10.94,3.45,10.85,3.56,10.76,3.68Z"/><path class="cls-1" d="M11.29,2.49h.07a.22.22,0,0,0,.15-.11q.15-.24.27-.48l.07-.14s0,0,0,0v-.1s0,0,0,0a0,0,0,0,0-.05,0l-.13.11-.1.16-.28.47h0v.05l0,0s0,0,0,.06Z"/><path class="cls-1" d="M9.25,3v.6a.26.26,0,0,0,.22.18h0a.39.39,0,0,0,.34-.19,4,4,0,0,0,.4-.86.29.29,0,0,0,0-.13.05.05,0,0,0-.05,0H10.1a.05.05,0,0,0,0,0,1.06,1.06,0,0,0-.11.21v0a.63.63,0,0,1-.07.25s0,.07,0,.11a.55.55,0,0,1-.15.24.13.13,0,0,1-.13,0,.14.14,0,0,1-.08-.09.49.49,0,0,1,0-.24,1.71,1.71,0,0,0,0-.78,1.67,1.67,0,0,1,0-.77L9.54,1a.52.52,0,0,0,0-.42s0,0,0,0h0a.05.05,0,0,0,0,0,1.36,1.36,0,0,0-.1.21l-.06.36c0,.21-.07.43-.12.64a1.49,1.49,0,0,0,.06.81A1.09,1.09,0,0,1,9.25,3Z"/><path class="cls-1" d="M3.43,4.22a.09.09,0,0,0,.07,0,.11.11,0,0,0,.07,0,.05.05,0,0,0,0,0,0,0,0,0,0,0,0,1.52,1.52,0,0,0-.45-.35c-.12,0-.14,0-.16,0a.05.05,0,0,0,0,0,0,0,0,0,0,0,0A.91.91,0,0,0,3.43,4.22Z"/><path class="cls-1" d="M6.61,1.8v.79a3.34,3.34,0,0,0,.17.76c.07.16.13.24.22.27s.18,0,.32-.05a.22.22,0,0,1,.27.05l.19.18A.3.3,0,0,0,8,3.88H8a.36.36,0,0,0,.21-.18.75.75,0,0,0,.06-.33s0-.08,0-.12V3.18a3,3,0,0,0,0-.53l0-.12A7.14,7.14,0,0,0,8.42,1V.85s0,0,0,0L8.28.76a.06.06,0,0,0-.06,0,.9.9,0,0,0,0,.4V2.64a3.27,3.27,0,0,0-.05.53h0v.14A.14.14,0,0,1,8,3.46l-.07,0a.36.36,0,0,1-.19-.32V2.44c0-.16-.09-.31-.14-.46a.05.05,0,0,0,0,0H7.44A0,0,0,0,0,7.39,2v.16a3,3,0,0,0,.06.52c0,.09,0,.18,0,.27v.2a.24.24,0,0,1-.23.21h0a.22.22,0,0,1-.21-.2,2,2,0,0,1,0-.24,3.37,3.37,0,0,0-.07-.84,4.27,4.27,0,0,1-.08-.55c0-.13,0-.25,0-.38A1,1,0,0,0,6.68.86L6.6.76H6.54a.05.05,0,0,0,0,.05v.33h0A2.51,2.51,0,0,1,6.61,1.8Z"/><path class="cls-1" d="M8.81,3.86c.1,0,.13,0,.13-.1a.31.31,0,0,0,0-.19,1.78,1.78,0,0,1,0-.65.59.59,0,0,0-.07-.37s0,0,0,0h0a.29.29,0,0,0-.13.28v.94S8.77,3.86,8.81,3.86Z"/><path class="cls-1" d="M7.5,1.7s0,0,0,0a.35.35,0,0,0,0-.37l0,0h0l0,0a.32.32,0,0,0,0,.37Z"/></svg>