<svg xmlns="http://www.w3.org/2000/svg" xml:space="preserve" id="Layer_1" x="0" y="0" style="enable-background:new 0 0 521 509.9" version="1.1" viewBox="0 0 521 509.9"><style type="text/css">.st0{fill:#4c3aff}</style><path d="M315.9 236v21c0 3-1.3 5.9-3.6 7.9l-38.3 31c-1.7 1.4-3.9 2.1-6.1 2.1h-55v-28h65c5.4 0 9-2.6 9-8v-5c0-5.4-3.6-8-9-8h-55c-5.5-.1-9.9-4.5-10-10v-21c0-2.9 1.2-5.7 3.4-7.6l37.3-31c1.8-1.5 4-2.4 6.3-2.4h47v28h-58c-4.3 0-7 2.7-7 7v7c0 4.3 2.7 7 7 7h58c5.4 0 9 4.6 9 10zm-52.5-101.2c-56.7 0-102.6 45.9-102.6 102.6S206.8 340 263.4 340 366 294 366 237.4s-45.9-102.6-102.6-102.6z" class="st0"/></svg>